<?xml version="1.0" encoding="UTF-8"?>
<svg id="Layer_2" data-name="Layer 2" xmlns="http://www.w3.org/2000/svg" xmlns:xlink="http://www.w3.org/1999/xlink" viewBox="0 0 67.182 67.092">
  <defs>
    <linearGradient id="linear-gradient" x1="0" y1="33.546" x2="67.182" y2="33.546" gradientUnits="userSpaceOnUse">
      <stop offset="0" stop-color="#4d7ec0"/>
      <stop offset="1" stop-color="#2a5c9c"/>
    </linearGradient>
    <linearGradient id="linear-gradient-2" x1="44.539" y1="14.041" x2="61.635" y2="14.041" xlink:href="#linear-gradient"/>
    <linearGradient id="linear-gradient-3" x1="26.008" y1="48.69" x2="28.322" y2="48.69" xlink:href="#linear-gradient"/>
    <linearGradient id="linear-gradient-4" x1="17.447" y1="48.666" x2="19.477" y2="48.666" xlink:href="#linear-gradient"/>
    <linearGradient id="linear-gradient-5" x1="21.705" y1="48.655" x2="23.758" y2="48.655" xlink:href="#linear-gradient"/>
    <linearGradient id="linear-gradient-6" x1="4.379" y1="61.481" x2="6.634" y2="61.481" xlink:href="#linear-gradient"/>
    <linearGradient id="linear-gradient-7" x1="12.941" y1="61.481" x2="15.196" y2="61.481" xlink:href="#linear-gradient"/>
    <linearGradient id="linear-gradient-8" x1="8.66" y1="61.458" x2="10.973" y2="61.458" xlink:href="#linear-gradient"/>
    <linearGradient id="linear-gradient-9" x1="4.379" y1="35.593" x2="6.634" y2="35.593" xlink:href="#linear-gradient"/>
    <linearGradient id="linear-gradient-10" x1="8.66" y1="35.593" x2="10.915" y2="35.593" xlink:href="#linear-gradient"/>
    <linearGradient id="linear-gradient-11" x1="12.918" y1="35.593" x2="15.196" y2="35.593" xlink:href="#linear-gradient"/>
    <linearGradient id="linear-gradient-12" x1="48.766" y1="13.973" x2="57.323" y2="13.973" xlink:href="#linear-gradient"/>
  </defs>
  <g id="Layer_1-2" data-name="Layer 1">
    <g>
      <path d="M39.077,12.846l.03-2.897,2.015-.851-.813-2.337,5.308-5.291c.949-.438,1.688.81,2.677.546l.848-2.015,7.816.039.841,1.975c.988.266,1.726-.983,2.676-.545l5.32,5.53-.826,2.098,2.015.851v7.934s-.191.26-.191.26c-3.385.503-.724,2.402-1.011,3.041l-5.523,5.521-2.1-.768-1.28,2.115-2.707.11v10.585h9.801c.382,0,1.809.683,2.151,1.003.593.555.826,1.24.902,2.026.495,5.104-.38,11.02-.026,16.213-.088,1.229-1.916,2.605-3.027,2.605h-3.267v2.028s2.029-.002,2.029-.002v2.253h-19.377v-2.253s2.029.002,2.029.002v-2.028h-3.268c-.873,0-3.042-1.431-3.042-2.365v-8.446h-6.534c.058.842-.015,1.651-.406,2.41-.414.805-1.75,1.459-1.849,1.98-.067.352-.066,1.682.037,1.993.128.388,1.01.568,1.421,1.057,1.038,1.24,1.01,5.444.743,7.032-.238,1.414-1.519,2.606-2.976,2.655-8.543-.472-17.686.589-26.156-.002-1.463-.102-2.893-.886-3.206-2.426-.199-.976-.183-4.532-.057-5.584.221-1.835,1.791-2.087,1.991-2.74l.052-2.398c-.812-.358-1.787-1.205-1.99-2.112-.229-1.02-.163-5.962.309-6.804.292-.52,1.649-1.418,1.676-1.528.076-.315.056-1.617.01-1.995-.115-.948-1.7-1.314-1.99-2.74-.19-.931-.176-5.266.054-6.149.217-.831,1.65-2.245,2.485-2.245h12.504v-12.162c-1.391-.004-2.842-1.584-3.103-2.866-1.171-5.733,6.593-7.766,8.286-2.314h18.7ZM55.493,2.066l-4.777-.041c-.561,2.178-2.495,2.777-4.437,1.927l-3.271,3.27c-.263.533.577,1.072.525,1.646-.01.109-.773,1.934-.834,2.025-.279.42-1.521.399-1.605.75l.002,4.654c.088.368,1.382.45,1.605.749.065.088.823,1.921.832,2.03.041.474-.683,1.208-.511,1.661l3.271,3.269c.533.263,1.073-.577,1.647-.525.109.01,1.934.773,2.025.834.42.279.399,1.521.75,1.604h4.66c.351-.083.33-1.325.75-1.604.091-.061,1.916-.824,2.025-.834.456-.041.918.48,1.357.591l3.575-3.35c.263-.533-.577-1.072-.525-1.646.01-.109.766-1.942.832-2.03.222-.299,1.516-.38,1.605-.749l.002-4.654c-.083-.351-1.325-.33-1.605-.75-.061-.091-.824-1.916-.834-2.025-.041-.456.481-.918.591-1.356l-3.341-3.569c-1.665.918-4.095.199-4.316-1.876ZM15.58,11.994c-2.228.507-1.744,4.505.978,4.131,2.739-.376,2.475-4.917-.978-4.131ZM39.077,15.098h-18.7c-.12,1.371-1.557,2.808-2.929,2.928v12.162h12.504c.8,0,2.011,1.231,2.307,1.974.417,1.048.455,5.224.187,6.375-.394,1.7-1.916,1.949-2.12,2.271-.097.153-.09,2.027,0,2.293.1.292,1.42,1.035,1.811,1.793.432.839.455,1.71.406,2.635h6.196l.338-.338v-6.081c0-.934,2.169-2.365,3.042-2.365h9.801v-10.585l-2.707-.11c-.656-.324-.491-1.919-1.28-2.115-.685-.171-1.534,1.03-2.315.539l-5.32-5.53.826-2.102-1.942-.807-.103-2.937ZM2.916,32.44c-1.135,0-1.136,6.306,0,6.306h26.811c.169,0,.51-.547.557-.794.111-.582.076-4.661-.11-5.058-.05-.106-.408-.454-.447-.454H2.916ZM4.38,40.998c.084.742-.28,1.716.338,2.252h23.206c.532-.484.532-1.768,0-2.252H4.38ZM41.105,42.011v11.711l.338.338h23.206l.338-.338v-11.711c0-.273-.784-1.183-1.228-1.025-6.773.537-14.552-.676-21.203-.002-.651.066-1.295.286-1.452,1.026ZM30.011,45.556l-1.176-.288-25.645.058c-1.662.206-1.224,5.739-.52,6.277l26.591.19c.253-.039.635-.14.809-.317.37-.374.364-5.497-.059-5.921ZM28.262,54.061H4.38v2.027h23.882v-2.027ZM41.443,56.088c-.806.779-.159,2.142.915,2.238,6.737-.44,14.313.633,20.95.025,2.222-.204,1.806-2.263,1.341-2.263h-23.206ZM2.916,58.34c-.956,0-.864,4.104-.788,4.841.082.793.215,1.476,1.112,1.592l24.695.108c.656-.035,2.094-.114,2.312-.842.137-.458.143-4.354.038-4.905-.047-.247-.389-.794-.557-.794H2.916ZM58.453,60.592h-10.815v2.027h10.815v-2.027Z" fill="url(#linear-gradient)"/>
      <path d="M51.415,5.472c11.552-1.669,14.051,14.41,3.666,16.953-11.717,2.869-14.693-15.36-3.666-16.953ZM52.551,7.497c-9.59.754-6.536,15.978,2.834,12.529,6.85-2.521,4.532-13.108-2.834-12.529Z" fill="url(#linear-gradient-2)"/>
      <path d="M28.264,47.528c.202,1.964-.033,2.811-2.156,2.042l-.099-2.042h2.255Z" fill="url(#linear-gradient-3)"/>
      <path d="M19.477,47.528l-.1,2.042c-.276.397-1.44.154-1.93.212v-2.254s2.03,0,2.03,0Z" fill="url(#linear-gradient-4)"/>
      <path d="M23.758,47.528v2.254s-1.818-.099-1.818-.099c-.413-.286-.14-1.631-.212-2.155h2.03Z" fill="url(#linear-gradient-5)"/>
      <path d="M6.634,62.62h-2.255s0-2.254,0-2.254c.525.072,1.868-.201,2.156.212l.099,2.042Z" fill="url(#linear-gradient-6)"/>
      <path d="M15.196,60.366v2.254s-2.255,0-2.255,0l.099-2.042c.287-.413,1.631-.14,2.156-.212Z" fill="url(#linear-gradient-7)"/>
      <path d="M10.915,62.62h-2.255l.099-2.042c2.123-.769,2.358.078,2.156,2.042Z" fill="url(#linear-gradient-8)"/>
      <rect x="4.379" y="34.465" width="2.255" height="2.255" fill="url(#linear-gradient-9)"/>
      <rect x="8.66" y="34.465" width="2.255" height="2.255" fill="url(#linear-gradient-10)"/>
      <path d="M15.196,34.466v2.254s-2.255,0-2.255,0c.072-.524-.201-1.868.212-2.155l2.043-.099Z" fill="url(#linear-gradient-11)"/>
      <path d="M52.086,9.747c6.831-1.18,7.067,9.429.191,8.483-4.642-.639-4.655-7.712-.191-8.483ZM52.305,11.994c-2.269.516-1.591,4.468.976,4.135,2.827-.367,2.488-4.922-.976-4.135Z" fill="url(#linear-gradient-12)"/>
    </g>
  </g>
</svg>