<?xml version="1.0" encoding="UTF-8"?>
<svg id="Layer_2" data-name="Layer 2" xmlns="http://www.w3.org/2000/svg" xmlns:xlink="http://www.w3.org/1999/xlink" viewBox="0 0 71.522 71.556">
  <defs>
    <linearGradient id="linear-gradient" x1="0" y1="35.778" x2="71.522" y2="35.778" gradientUnits="userSpaceOnUse">
      <stop offset="0" stop-color="#48895e"/>
      <stop offset=".552" stop-color="#46875c"/>
      <stop offset=".751" stop-color="#428055"/>
      <stop offset=".892" stop-color="#3a7549"/>
      <stop offset="1" stop-color="#31663a"/>
    </linearGradient>
    <linearGradient id="linear-gradient-2" x1="9.382" y1="26.474" x2="20.76" y2="26.474" xlink:href="#linear-gradient"/>
    <linearGradient id="linear-gradient-3" x1="9.382" y1="17.213" x2="20.76" y2="17.213" xlink:href="#linear-gradient"/>
    <linearGradient id="linear-gradient-4" x1="13.88" y1="12.582" x2="20.76" y2="12.582" xlink:href="#linear-gradient"/>
    <linearGradient id="linear-gradient-5" x1="13.825" y1="35.763" x2="16.263" y2="35.763" xlink:href="#linear-gradient"/>
    <linearGradient id="linear-gradient-6" x1="18.324" y1="35.763" x2="20.761" y2="35.763" xlink:href="#linear-gradient"/>
    <linearGradient id="linear-gradient-7" x1="9.38" y1="35.734" x2="11.5" y2="35.734" xlink:href="#linear-gradient"/>
    <linearGradient id="linear-gradient-8" x1="9.38" y1="12.582" x2="11.5" y2="12.582" xlink:href="#linear-gradient"/>
  </defs>
  <g id="Layer_1-2" data-name="Layer 1">
    <g>
      <path d="M18.775,4.644c1.226.13,3.506.905,4.7,1.386,1.159.467,2.065,1.298,3.223,1.528,2.503-1.483,5.186-2.545,8.088-2.917-.863-4.857,2.122-5.746,5.905-3.39,1.122.699,3.082,2.889,3.888,3.256.551.252,2.622.246,3.166,0,.367-.167,1.025-1.088,1.468-1.443,6.428-5.163,9.994-3.966,7.594,4.855,1.19.771,3.192,4.204,4.164,4.541,2.953,1.025,8.005.834,10.066,3.956,2.697,4.086-6.616,6.326-9.227,6.52.154,1.294-1.748,3.738-1.78,4.593-.023.628,1.051,2.532,1.29,3.367.582,2.028,1.761,5.826.097,7.524-2.524,2.576-7.812-2.606-9.626-4.364l-3.001.337c-1.064,3.589,1.294,10.426-2.117,12.966-2.253,1.678-4.082.371-6,1.144-1.838.741-1.93,3.695.121,4.241,4.967.412,10.374-.36,15.287.061,8.374.717,7.997,11.008.543,11.648l-31.205-.026c-.924,3.893-3.6,6.602-7.691,6.907-3.079.23-10.03.367-12.954-.035-2.135-.293-4.338-2.475-4.631-4.63-.196-1.437-.199-5.651.04-7.058.318-1.872,2.057-3.55,3.847-4.091,2.291-.692,10.451-.54,13.169-.35,4.462.311,7.116,2.625,8.22,6.908l31.707-.034c4.005-1.068,3.654-6.3-.542-6.833-5.133-.651-11.277.525-16.516-.154-1.867-.814-3.021-2.374-3.32-4.389l-4.574.051c-1.55,6.005-9.772,6.033-11.312-.053l-19.352-.183c-.602-.436-1.387-.925-1.405-1.771l.02-40.227c.725-1.898,2.755-1.806,4.494-1.725v-2.118c4.516.349,9.721-.47,14.156,0ZM41.929,5.7c.435-.46-2.526-2.539-2.927-2.76-1.813-1-2.267-.985-2.027,1.234.06.553.71,3.641,1.117,3.64,1.045-.923,2.438-1.93,3.837-2.114ZM55.148,2.271c-.563-.396-4.762,2.392-4.221,2.901,1.312-.018,2.489.664,3.573,1.318.522-.037,1.157-3.603.648-4.219ZM25.258,20.52c-2.984-1.308-2.702-4.141-.043-5.732v-4.941c-.27-.788-5.383-2.822-6.175-2.822H7v35.192c6.118-1.442,12.266-.872,18.258.794v-22.491ZM27.64,9.672v3.969l6.412-1.327,2.004-2.992-.772-2.268c-2.78-.001-5.234,1.407-7.645,2.617ZM53.819,8.633c-4.577-2.51-10.738-2.312-14.679,1.312-.361.808,1.628,4.353,2.122,5.289.436.825,3.566,6.361,3.895,6.553.278.162,1.277.109,1.619.005,1.027-.313,5.653-9.346,6.313-10.883.167-.39.917-2.019.731-2.275ZM4.619,9.142c-.798.074-1.818-.295-2.382.397v38.367l.397.397h20.508c-.678,6.101,7.487,6.104,6.879-.002l7.489.007c.891-1.443,2.337-2.213,4.027-2.383,1.72-.173,3.397.623,4.362-1.323-4.998-1.219-10.354-1.085-15.35.126-.984.239-3.385,1.372-4.1,1.348-.621-.021-3.783-1.307-4.942-1.562-5.673-1.248-11.302-.851-16.887.613V9.142ZM59.924,21.05c.131-2.22-.094-4.279-.933-6.346-.26-.64-2.553-4.769-3.299-4.238l-5.825,11.374,10.057-.79ZM37.428,12.318c-.761-.574-2.171,3.187-2.302,3.648-.44,1.555-.787,3.507-.312,5.053l7.378.558-4.765-9.259ZM32.931,14.965c-2.522.384-5.052,1.045-7.244,2.356-.276.096-.214.422-.129.643.49,1.271,5.468,2.313,6.844,2.556-.121-1.921.057-3.703.529-5.554ZM62.306,20.519c.171.18,3.931-.969,4.492-1.194.465-.187,2.501-1.036,2.383-1.576-.238-1.093-6.377-2.816-7.671-2.782.633,1.77.864,3.682.795,5.553ZM27.64,21.843v21.168c6.161-1.563,12.248-2.254,18.523-.794v-7.673l-4.901-1.234c-6.897,7.445-14.448,9.173-9.659-4.197.801-2.235,2.516-3.814,1.009-6.157l-4.972-1.112ZM40.865,30.31c.564-1.538,3.033-3.337,3.582-4.777.791-2.074-3.198-1.487-4.235-1.575-1.623-.138-3.267-.437-4.897-.525.734,2.881,2.931,5.512,5.55,6.878ZM59.128,23.432l-10.925.787c-.148.037-.627.827-.627.932-.002.405,4.449,5.97,5.025,5.915,3.006-1.622,5.748-4.181,6.527-7.635ZM46.049,27.408l-3.055,3.83c.057.751,5.619,1.265,6.353.8.244-.155.397-.441.128-.672l-3.425-3.958ZM35.044,27.931l-.541.153c-.941,2.812-2.405,5.511-2.1,8.578,1.061,1.034,5.854-3.727,6.611-4.632-1.464-1.166-3.147-2.355-3.97-4.099ZM59.923,36.662c.392-.891-1.173-6.882-1.72-6.875l-4.099,3.298c1.756,1.335,3.441,3.688,5.819,3.577ZM11.499,57.564h-6.483c-3.358,0-3.581,8.72-1.594,10.591.142.134,1.252.787,1.33.787h6.748v-11.378ZM18.511,57.564c-1.353-.224-3.211.164-4.631,0v4.498l2.459.005c.965-2.07,3.062-2.516,5.215-2.389-.475-.885-2.102-1.958-3.043-2.114ZM22.839,62.099c-1.277-.012-4.82-.61-4.149,1.628.36,1.201,3.017.609,4.017.679.775-.255.408-1.735.132-2.307ZM13.88,64.443v4.498h4.895c.404,0,3.315-1.647,2.777-2.115-2.173.148-4.33-.179-5.202-2.394l-2.47.011Z" fill="url(#linear-gradient)"/>
      <path d="M20.76,20.785v11.378h-11.378v-11.378h11.378ZM18.379,22.901h-6.483l-.397.397v6.483h6.88v-6.88Z" fill="url(#linear-gradient-2)"/>
      <rect x="9.382" y="16.022" width="11.378" height="2.381" fill="url(#linear-gradient-3)"/>
      <rect x="13.88" y="11.524" width="6.88" height="2.117" fill="url(#linear-gradient-4)"/>
      <path d="M16.263,34.543l-.249,2.266c-2.234.579-2.295-.3-2.135-2.266h2.384Z" fill="url(#linear-gradient-5)"/>
      <path d="M20.761,34.543l-.249,2.266c-2.234.579-2.295-.3-2.135-2.266h2.384Z" fill="url(#linear-gradient-6)"/>
      <rect x="9.38" y="34.542" width="2.12" height="2.384" fill="url(#linear-gradient-7)"/>
      <rect x="9.38" y="11.522" width="2.12" height="2.12" fill="url(#linear-gradient-8)"/>
    </g>
  </g>
</svg>