<?xml version="1.0" encoding="UTF-8"?>
<svg id="Layer_2" data-name="Layer 2" xmlns="http://www.w3.org/2000/svg" xmlns:xlink="http://www.w3.org/1999/xlink" viewBox="0 0 67.87 68.233">
  <defs>
    <linearGradient id="linear-gradient" x1="0" y1="34.116" x2="67.87" y2="34.116" gradientUnits="userSpaceOnUse">
      <stop offset="0" stop-color="#8e6db0"/>
      <stop offset="1" stop-color="#7a51a1"/>
    </linearGradient>
  </defs>
  <g id="Layer_1-2" data-name="Layer 1">
    <path d="M30.49,66.193c-.17.962-1.075,1.691-2.031,1.803-2.682.314-10.272.317-12.95,0-1.324-.157-1.926-1.005-2.043-2.271-.216-2.345-.19-6.761.004-9.126.047-.574.35-.88.451-1.396-2.386-2.928-6.08-5.489-8.216-8.559-.994-1.43-5.472-10.881-5.652-12.322-.374-2.994,1.232-5.041,4.385-4.385,1.879.391,2.311,2.259,3.028,3.677.128.253-.125.454.5.341.21-7.582,4.101-14.936,10.3-19.292C13.663,9.984,15.597,1.86,22.096.273c7.189-1.755,13.053,5.67,9.633,12.273-.419.81-1.084,1.331-1.479,2.11l3.508,2.985,3.671-3.004c-5.849-6.448-.234-16.596,8.347-14.307,6.478,1.728,8.137,9.745,3.643,14.448,6.465,4.144,9.941,11.629,10.546,19.177l1.435-2.754c2.375-2.84,7.03-.976,6.414,2.818-.252,1.553-4.362,10.251-5.356,11.902-2.056,3.413-6.165,6.162-8.69,9.283.101.516.405.822.451,1.396.129,1.574.238,8.821-.114,9.967-.17.552-1.053,1.466-1.678,1.438-4.178-.38-9.116.466-13.196-.007-.825-.096-2.031-1.052-2.031-1.803v-8.269h-6.709c-.307,2.469.413,5.93,0,8.269ZM19.793,4.082c-5.626,5.627,2.614,14.373,8.549,9.151,6.358-5.594-2.571-15.129-8.549-9.151ZM42.168,2.375c-7.188,1.225-6.071,13.017,1.828,12.388,8.341-.664,7.086-13.906-1.828-12.388ZM10.123,32.878c-.12,1.345.088,2.832,0,4.194,1.56-.298,2.811-.377,4.312.239-.577-1.863,1.676-12.933,3.036-13.389.98-.329,1.565.333,1.533,1.276-.047,1.372-1.512,4.69-1.856,6.558-.34,1.845-1.192,6.5.175,7.823.465.45,4.966,3.103,5.259,2.767.286-4.285,1.764-8.475,4.729-11.62-2.893-4.651-1.099-10.126,3.894-12.228-.642-.618-2.157-2.217-3.005-2.272-.647-.042-1.834.591-2.647.688-.671.081-1.709.096-2.38.036-2.027-.182-2.06-1.314-4.116-.063-4.785,2.911-8.445,10.55-8.932,15.992ZM57.804,37.072c.038-7.257-2.246-14.538-7.903-19.297-2.993-2.518-2.357-1.105-5.384-.826-1.812.167-3.327-.23-5.03-.727l-3.003,2.275c4.993,2.102,6.787,7.577,3.894,12.228,2.954,3.166,4.474,7.318,4.729,11.62.292.337,4.795-2.317,5.259-2.767,1.395-1.35.516-5.955.175-7.823-.416-2.274-1.199-4.36-1.856-6.558-.209-1.178,1.202-1.811,1.948-.963.224.255.707,1.765.874,2.24,1.195,3.408,1.741,7,1.858,10.605l2.409-.266,2.031.258ZM32.584,20.591c-6.041,1.03-5.735,10.852.94,11.189,8.135.411,7.836-12.685-.94-11.189ZM16.712,54.569h8.866c.878-1.862.229-4.691-.634-6.556-1.613-3.486-3.588-3.339-6.508-4.995-1.547-.877-5.06-4.14-6.487-4.022-.528.044-1.043.438-1.586.476-.467.619,5.946,6.337,6.583,7.191.528,1.152-.237,2.292-1.393,1.646-.838-.468-5.326-5.097-6.156-6.078-.342-.404-.767-.912-1.051-1.345-.982-1.499-3.398-8.11-4.119-8.582-1.328-.87-2.287.2-1.958,1.719.301,1.387,4.36,9.966,5.257,11.278l9.185,9.267ZM42.111,54.569h8.866c2.543-3.038,6.473-5.818,8.872-8.862.954-1.211,5.254-10.225,5.57-11.684.329-1.519-.63-2.59-1.958-1.719-.676.443-3.151,7.106-4.119,8.582-1.739,2.654-5.069,5.025-7.21,7.429-1.114.455-1.829-.292-1.466-1.487.372-1.226,5.707-5.067,6.544-6.879.073-.159.162-.273.116-.478-2.806-1.481-4.699,1.42-6.874,2.827-3.876,2.507-7.144,2.229-8.389,7.667-.179.784-.73,4.361.048,4.602ZM41.034,45.699c.2.215,1.718-1.522,1.791-1.68.458-.991-.552-5.247-.963-6.458-.326-.96-2.192-5.105-3.3-5.005-2.986,1.923-6.462,1.914-9.433,0-2.343,1.513-3.652,5.364-4.083,8.057-.094.584-.354,2.337-.328,2.813.04.736,1.374,1.949,1.937,2.514-.211-1.515,2.328-7.246,3.753-7.377,2.577-.238-.413,3.906-.751,4.745-1.343,3.337-1.646,7.471-1.452,11.031.762.099,1.629,1.08,2.172,1.183.701.134,6.566.121,7.134-.045.402-.117,1.275-1.076,1.977-1.138.184-3.692-.057-7.757-1.525-11.199-.421-.987-1.784-2.728-1.747-3.552.03-.673.552-1.168,1.231-.982,1.432.391,3.573,5.513,3.588,7.093ZM28.094,56.726h-12.46v8.748l.359.36h12.1v-9.108ZM52.055,56.726h-12.46v9.108h12.46v-9.108Z" fill="url(#linear-gradient)"/>
  </g>
</svg>