<?xml version="1.0" encoding="UTF-8"?>
<svg id="Layer_2" data-name="Layer 2" xmlns="http://www.w3.org/2000/svg" xmlns:xlink="http://www.w3.org/1999/xlink" viewBox="0 0 85.67 71.176">
  <defs>
    <linearGradient id="linear-gradient" x1="0" y1="35.588" x2="85.67" y2="35.588" gradientUnits="userSpaceOnUse">
      <stop offset="0" stop-color="#e25a54"/>
      <stop offset="1" stop-color="#d03d37"/>
    </linearGradient>
    <linearGradient id="linear-gradient-2" x1="42.475" y1="41.412" x2="79.943" y2="41.412" xlink:href="#linear-gradient"/>
    <linearGradient id="linear-gradient-3" x1="62.715" y1="21.344" x2="78.506" y2="21.344" xlink:href="#linear-gradient"/>
    <linearGradient id="linear-gradient-4" x1="62.699" y1="15.686" x2="78.432" y2="15.686" xlink:href="#linear-gradient"/>
    <linearGradient id="linear-gradient-5" x1="62.677" y1="9.988" x2="78.432" y2="9.988" xlink:href="#linear-gradient"/>
    <linearGradient id="linear-gradient-6" x1="58.395" y1="21.451" x2="61.331" y2="21.451" xlink:href="#linear-gradient"/>
    <linearGradient id="linear-gradient-7" x1="58.37" y1="15.735" x2="61.446" y2="15.735" xlink:href="#linear-gradient"/>
    <linearGradient id="linear-gradient-8" x1="58.367" y1="9.979" x2="61.423" y2="9.979" xlink:href="#linear-gradient"/>
  </defs>
  <g id="Layer_1-2" data-name="Layer 1">
    <g>
      <path d="M5.618,32.667C-.12,31.487.031,24.103,5.667,22.775l.006-18.803c.38-1.809,1.209-3.147,3.072-3.673C33.021-.301,57.43.22,81.756.036c1.772.362,3.147,1.301,3.656,3.091l.258,53.89c-.306,2.255-1.761,4.14-4.18,4.186l-45.962-.004c-.883.165-2.733,3.503-3.658,4.436-9.178,9.266-25.013,6.541-30.238-5.425-3.198-7.323-1.606-15.139,3.961-20.759l.024-6.784ZM36.468,58.228h45.552c.047,0,.477-.415.537-.543l.155-53.214-.395-1.223-73.149-.105c-.128.06-.545.488-.545.535v19.799c2.836-1.295,4.764-4.263,7.327-6.051-.078-1.841-.669-2.784.189-4.641,2.211-4.786,10.274-3.041,9.492,2.995-.081.622-.77,1.751-.468,2.26l5.504,4.101c.915-.099,1.785-.768,2.718-.793,1.184-.032,2.417,1.057,3.34.646l7.607-6.457c-.348-2.939.284-5.897,3.54-6.691,6.063-1.478,8.44,6.616,3.878,8.982-2.163,1.122-3.448.523-5.624.03l-7.489,6.027c-.552,1.698.355,2.422-.496,4.356-1.591,3.612-6.364,4.204-8.699,1.027-1.127-1.534-.794-2.776-.81-4.58l-5.876-4.929c-1.703.101-2.873.354-4.527-.326l-7.049,5.932c.247,3.008.513,4.171-1.739,6.347-.317.306-.816.342-.816.387v4.849c15.138-8.611,32.158,4.498,27.845,21.281ZM50.72,11.971c-1.954-1.942-5.127,1.315-3.039,3.163,2.241,1.984,5.029-1.185,3.039-3.163ZM20.695,12.783c-2.979.156-2.966,4.933.761,4.224,2.014-.383,1.598-4.348-.761-4.224ZM32.877,24.345c-2.473.557-1.561,4.524.95,4.203,2.85-.364,2.315-4.939-.95-4.203ZM5.845,25.688c-1.985.441-2.095,3.538-.209,4.135,3.76,1.191,3.697-4.911.209-4.135ZM17.004,37.217c-10.268.643-17.32,12.24-12.833,21.557l12.833-7.145v-14.412ZM34.035,51.225c-.383-7.235-6.779-13.702-14.058-14.008v14.008h14.058ZM34.035,54.188h-15.544l-12.838,7.155c7.745,12.251,27.347,7.302,28.383-7.155Z" fill="url(#linear-gradient)"/>
      <path d="M75.667,52.572c1.139.122,3.08-.388,3.908.549s.156,2.36-1.056,2.427c-10.213-.701-21.58.888-31.654-.002-2.594-.229-3.962-1.897-4.19-4.445-.638-7.115.503-15.158.006-22.374.02-.917.554-1.623,1.493-1.726.655.104,1.364.497,1.48,1.198l.006,22.896c.005.896.405,1.488,1.352,1.477v-16.567c0-.114,1.415-1.432,1.69-1.548,1.286-.539,3.984-.539,5.27,0,.276.116,1.69,1.434,1.69,1.548v16.567h1.352v-20.608c0-.254,1.058-1.412,1.365-1.603.918-.574,4.379-.612,5.409-.297.474.145,1.878,1.512,1.878,1.9v20.608h1.352v-12.257c0-1.666,3.763-2.137,5.013-2.03,1.16.099,3.638.934,3.638,2.3v11.987ZM62.691,32.637h-2.703v19.934h2.703v-19.934ZM52.688,36.947h-2.703v15.624h2.703v-15.624ZM72.693,41.258h-2.703v11.314h2.703v-11.314Z" fill="url(#linear-gradient-2)"/>
      <path d="M64.79,19.779c3.972-.589,8.566.627,12.628.204,1.099.197,1.44,1.804.677,2.547-.563.549-3.631.087-4.739.127-2.737.098-6.471.686-9.162.265-2.156-.337-1.955-2.766.595-3.144Z" fill="url(#linear-gradient-3)"/>
      <path d="M64.79,14.122c3.991-.591,8.556.602,12.627.206,1.373.257,1.335,2.447,0,2.679-4.131-.371-8.893.833-12.943.251-2.579-.37-2.239-2.757.316-3.135Z" fill="url(#linear-gradient-4)"/>
      <path d="M64.513,8.458c3.923-.698,8.86.657,12.904.213,1.373.257,1.335,2.447,0,2.679-2.972-.625-11.983,1.215-14.179-.132-1.287-.789-.147-2.507,1.275-2.76Z" fill="url(#linear-gradient-5)"/>
      <path d="M59.372,20.025c2.032-.592,2.701,2.411.96,2.874-1.81.481-2.787-2.342-.96-2.874Z" fill="url(#linear-gradient-6)"/>
      <path d="M61.004,14.654c1.558,1.552-1.421,3.869-2.506,1.547-.682-1.461,1.545-2.504,2.506-1.547Z" fill="url(#linear-gradient-7)"/>
      <path d="M61.004,8.997c.975.971.176,2.841-1.634,2.305-2.397-.71.05-3.883,1.634-2.305Z" fill="url(#linear-gradient-8)"/>
    </g>
  </g>
</svg>