<?xml version="1.0" encoding="UTF-8"?>
<svg id="Layer_2" data-name="Layer 2" xmlns="http://www.w3.org/2000/svg" xmlns:xlink="http://www.w3.org/1999/xlink" viewBox="0 0 68.704 67.811">
  <defs>
    <linearGradient id="linear-gradient" x1="0" y1="33.906" x2="49.969" y2="33.906" gradientUnits="userSpaceOnUse">
      <stop offset="0" stop-color="#f3be3d"/>
      <stop offset="1" stop-color="#eeb73c"/>
    </linearGradient>
    <linearGradient id="linear-gradient-2" x1="29.242" y1="46.272" x2="68.704" y2="46.272" xlink:href="#linear-gradient"/>
    <linearGradient id="linear-gradient-3" x1="8.484" y1="27.742" x2="41.201" y2="27.742" xlink:href="#linear-gradient"/>
    <linearGradient id="linear-gradient-4" x1="8.509" y1="56.535" x2="34.374" y2="56.535" xlink:href="#linear-gradient"/>
    <linearGradient id="linear-gradient-5" x1="8.48" y1="41.764" x2="26.547" y2="41.764" xlink:href="#linear-gradient"/>
    <linearGradient id="linear-gradient-6" x1="20.759" y1="20.617" x2="41.101" y2="20.617" xlink:href="#linear-gradient"/>
    <linearGradient id="linear-gradient-7" x1="8.519" y1="49.096" x2="26.584" y2="49.096" xlink:href="#linear-gradient"/>
    <linearGradient id="linear-gradient-8" x1="8.502" y1="34.502" x2="23.507" y2="34.502" xlink:href="#linear-gradient"/>
    <linearGradient id="linear-gradient-9" x1="26.137" y1="34.006" x2="40.401" y2="34.006" xlink:href="#linear-gradient"/>
    <linearGradient id="linear-gradient-10" x1="8.519" y1="20.617" x2="18.295" y2="20.617" xlink:href="#linear-gradient"/>
  </defs>
  <g id="Layer_1-2" data-name="Layer 1">
    <g>
      <path d="M3.727,8.184c-1.288.229-2.297,2.023-2.239,3.287v51.66c.173,2.015.991,3.11,3.081,3.295l41.366-.1c.991-.336,1.94-1.298,2.091-2.372.463-3.275-.34-7.407.063-10.777.916-1.235,1.552-.473,1.667.797.192,2.121.243,8.942-.278,10.794-.421,1.496-1.655,2.596-3.121,3.043l-43.163-.01c-1.621-.537-2.992-2.092-3.187-3.827l-.007-53.141c.555-6.406,8.827-3.794,13.045-4.384,1.473-2.475,3.503-3.135,6.314-3.038.602-1.759,1.756-3.128,3.703-3.311,3.032-.285,6.444-.176,7.152,3.384,2.715-.253,5.036.462,6.282,3.009,4.749.499,12.616-2.159,13.246,4.776.263,2.895.335,9.501.008,12.327-.182,1.57-1.535,1.577-1.714.219-.53-4.008.607-9.436-.004-13.386-.118-.765-1.282-2.245-2.006-2.245h-9.246v2.975c3.696.722,8.654-1.311,9.149,4.135.304,3.341.302,10.065.001,13.409-.082.916-.341,1.82-1.397,1.163-.22-.285-.278-.607-.318-.956-.505-4.406.395-9.725-.008-14.231-.458-2.893-5.473-1.497-7.499-1.828-.604,1.238-1.36,2.007-2.788,2.145-5.889.571-12.713-.437-18.702-.024-1.473-.006-1.788-2.006-2.765-2.124-1.007-.121-4.122-.125-5.1.026-1.352.209-2.004,1.347-2.042,2.634l.027,43.984c.187,1.039.696,1.797,1.72,2.106l34.716.144c.699.093,2.444-.942,2.444-1.595v-4.888c0-.106.534-.555.755-.542.272-.112.945.386.945.542v4.463c0,1.346-2.029,3.574-3.507,3.507H7.34c-1.677-.211-2.837-1.194-3.406-2.758l-.081-46c1.033-4.402,5.388-2.745,8.71-3.193l.199-3.095H3.727ZM23.121,1.646c-1.805.302-2.097,1.719-2.481,3.258-3.573.022-6.119.033-6.401,4.227-.106,1.573-.318,4.144,1.812,4.371,5.618-.396,11.91.51,17.445.005.569-.052.966-.076,1.376-.537.763-.857.515-4.884.034-5.995-1.066-2.46-3.607-1.835-5.78-2.084-.62-.31-.246-2.407-2.001-3.1-.791-.312-3.123-.293-4.004-.146Z" fill="url(#linear-gradient)"/>
      <path d="M53.711,26.11c2.197,3.001,5.095,5.555,7.294,8.541.931,1.264,1.531,2.17.528,3.703-.422.644-2.659,2.443-3.406,2.549-.693.098-1.489-.251-1.854-.166-.321.075-2.937,2.384-2.899,2.595.566.594,1.015.998,1.12,1.868.082.672-.349,1.295-.25,1.73.069.301,3.813,3.61,4.435,4.287,2.604,2.831,4.804,6.032,6.902,9.247.693-.552,1.809-1.978,2.732-1.671,1.209.402-.737,2.05-1.135,2.422-.785.734-6.861,5.976-7.334,5.98-.499.004-.925-.561-.714-1.05l1.876-1.951c-3.397-2.975-6.41-6.191-9.097-9.821-.399-.539-2.185-3.477-2.37-3.587-.208-.123-.78.298-1.175.303-1.003.011-1.657-1.083-2.339-1.663-.464.559-1.845,1.291-2.122,1.907-.246.547-.03,1.184-.153,1.759-.161.754-2.51,2.9-3.2,3.177-1.754.705-2.591-.21-3.668-1.324-1.95-2.016-4.536-5.105-6.262-7.341-.953-1.234-1.83-2.108-1.12-3.872.254-.63,2.853-2.697,3.572-2.803.743-.11,1.574.252,2.119.012l12.334-10.442c-.412-1.744.3-2.517,1.481-3.606,1.468-1.353,2.89-2.26,4.704-.783ZM51.6,26.92c-.539.085-3.307,2.25-2.376,3.147,2.347,2.535,4.435,5.597,6.789,8.087.237.25.972,1.072,1.177,1.168.873.409,3.819-1.922,3.076-3.08l-8.03-9.199c-.2-.122-.403-.16-.636-.123ZM55.03,39.824c.226-.392-.735-1.39-1.039-1.774-1.643-2.081-3.629-3.921-5.193-6.074l-.407-.187-12.197,10.503,6.436,7.766,12.4-10.235ZM34.381,42.679c-.877-.665-1.479.039-2.164.579-.571.45-1.67,1.355-1.299,2.128l7.666,9.133c.921,1.291,3.868-1.527,3.687-2.394l-7.889-9.445ZM51.991,44.321c-.638.925-4.163,3.117-4.485,3.823-.256.56.421,1.386,1.018,1.241.198-.048.576-.371.777-.521,1.199-.898,2.313-2.157,3.537-3.066.31-.371-.49-1.558-.847-1.477ZM52.829,47.998l-1.926,1.636c-.185.288.046.469.151.698,1.364,2.988,7.714,10.13,10.401,12.134,1.521,1.134,1.303.003,2.646-.725l.101-.309c-2.931-5.053-6.722-9.85-11.374-13.434Z" fill="url(#linear-gradient-2)"/>
      <path d="M40.977,27.151c.487.468.097,1.037-.377,1.325l-30.719.121c-1.493.16-2.021-1.509-.425-1.72h30.415c.339.026.855.034,1.106.275Z" fill="url(#linear-gradient-3)"/>
      <path d="M8.829,55.791h25.082c.617,0,.617,1.488,0,1.488H9.041c-.362,0-.873-1.21-.213-1.488Z" fill="url(#linear-gradient-4)"/>
      <path d="M26.547,41.156v1.215c-.352.184-.736.224-1.129.252-5.155.376-10.756-.308-15.961,0-1.465-.196-1.191-1.709.219-1.714,5.132.294,10.66-.377,15.742-.006.393.029.777.068,1.129.252Z" fill="url(#linear-gradient-5)"/>
      <path d="M21.157,19.873h19.555c.519,0,.519,1.488,0,1.488h-19.555c-.419,0-.633-1.251,0-1.488Z" fill="url(#linear-gradient-6)"/>
      <path d="M9.041,48.352h17.217c.435,0,.435,1.488,0,1.488H8.829c-.503,0-.367-1.312.213-1.488Z" fill="url(#linear-gradient-7)"/>
      <path d="M23.389,33.688l.119,1.06c-.266.441-.625.397-1.063.441-4.141.41-8.968-.326-13.185-.019-1.047-.197-.822-1.482-.431-1.482h14.56Z" fill="url(#linear-gradient-8)"/>
      <path d="M26.471,33.263h13.604c.435,0,.435,1.488,0,1.488h-13.604c-.368,0-.517-1.276,0-1.488Z" fill="url(#linear-gradient-9)"/>
      <path d="M9.041,19.873h8.927c.435,0,.435,1.488,0,1.488h-9.14c-.503,0-.367-1.312.213-1.488Z" fill="url(#linear-gradient-10)"/>
    </g>
  </g>
</svg>